<svg width="24" height="25" viewBox="0 0 24 25" fill="none" xmlns="http://www.w3.org/2000/svg">
<path d="M21.375 12.042C21.375 12.3404 21.2565 12.6265 21.0455 12.8375C20.8345 13.0485 20.5484 13.167 20.25 13.167H3.75C3.45163 13.167 3.16548 13.0485 2.9545 12.8375C2.74353 12.6265 2.625 12.3404 2.625 12.042C2.625 11.7436 2.74353 11.4575 2.9545 11.2465C3.16548 11.0355 3.45163 10.917 3.75 10.917H20.25C20.5484 10.917 20.8345 11.0355 21.0455 11.2465C21.2565 11.4575 21.375 11.7436 21.375 12.042ZM3.75 7.16699H20.25C20.5484 7.16699 20.8345 7.04847 21.0455 6.83749C21.2565 6.62651 21.375 6.34036 21.375 6.04199C21.375 5.74362 21.2565 5.45748 21.0455 5.2465C20.8345 5.03552 20.5484 4.91699 20.25 4.91699H3.75C3.45163 4.91699 3.16548 5.03552 2.9545 5.2465C2.74353 5.45748 2.625 5.74362 2.625 6.04199C2.625 6.34036 2.74353 6.62651 2.9545 6.83749C3.16548 7.04847 3.45163 7.16699 3.75 7.16699ZM20.25 16.917H3.75C3.45163 16.917 3.16548 17.0355 2.9545 17.2465C2.74353 17.4575 2.625 17.7436 2.625 18.042C2.625 18.3404 2.74353 18.6265 2.9545 18.8375C3.16548 19.0485 3.45163 19.167 3.75 19.167H20.25C20.5484 19.167 20.8345 19.0485 21.0455 18.8375C21.2565 18.6265 21.375 18.3404 21.375 18.042C21.375 17.7436 21.2565 17.4575 21.0455 17.2465C20.8345 17.0355 20.5484 16.917 20.25 16.917Z" fill="black"/>
</svg>
