<svg width="24" height="24" viewBox="0 0 24 24" fill="none" xmlns="http://www.w3.org/2000/svg">
<path d="M12.1207 12.7795C12.0507 12.7695 11.9607 12.7695 11.8807 12.7795C10.1207 12.7195 8.7207 11.2795 8.7207 9.50949C8.7207 7.69949 10.1807 6.22949 12.0007 6.22949C13.8107 6.22949 15.2807 7.69949 15.2807 9.50949C15.2707 11.2795 13.8807 12.7195 12.1207 12.7795Z" stroke="#334155" stroke-width="1.5" stroke-linecap="round" stroke-linejoin="round"/>
<path d="M18.7398 19.3805C16.9598 21.0105 14.5998 22.0005 11.9998 22.0005C9.39977 22.0005 7.03977 21.0105 5.25977 19.3805C5.35977 18.4405 5.95977 17.5205 7.02977 16.8005C9.76977 14.9805 14.2498 14.9805 16.9698 16.8005C18.0398 17.5205 18.6398 18.4405 18.7398 19.3805Z" stroke="#334155" stroke-width="1.5" stroke-linecap="round" stroke-linejoin="round"/>
<path d="M12 22C17.5228 22 22 17.5228 22 12C22 6.47715 17.5228 2 12 2C6.47715 2 2 6.47715 2 12C2 17.5228 6.47715 22 12 22Z" stroke="#334155" stroke-width="1.5" stroke-linecap="round" stroke-linejoin="round"/>
</svg>
